<svg xmlns="http://www.w3.org/2000/svg" fill="none" viewBox="0 0 1200 630"><path fill="#fff" d="M0 0h1200v630H0z"/><g transform="scale(3.0, 2.1)"><pattern id="a" width="8" height="8" x="0" y="0" patternUnits="userSpaceOnUse"><circle cx="4" cy="4" r="1" fill="#000" fill-opacity=".1"/></pattern><path fill="url(#a)" d="M0 0h1200v630H0z"/><path fill="#fff" stroke="#1a1a1a" stroke-width="6" d="M60 50h280v180H60z"/><path stroke="#1a1a1a" stroke-dasharray="0" stroke-width="3" d="M72 62h280v180H72z" opacity=".3"/><path fill="#fc0" stroke="#1a1a1a" stroke-width="3" d="m280 10 8 18 20-3-13 15 13 15-20-3-8 18-8-18-20 3 13-15-13-15 20 3z"/><text y="5" fill="#1a1a1a" font-family="Arial Black, sans-serif" font-size="12" font-weight="900" text-anchor="middle" transform="translate(280 40)">POW!</text><g transform="translate(200 100)"><ellipse fill="#fff" stroke="#1a1a1a" stroke-width="4" rx="90" ry="40"/><path fill="#fff" stroke="#1a1a1a" stroke-width="4" d="M-20 35 0 60l10-25z"/><text y="-5" fill="#1a1a1a" font-family="Arial Black, sans-serif" font-size="20" font-weight="900" text-anchor="middle">COMIC</text><text y="15" fill="#666" font-family="Arial, sans-serif" font-size="12" text-anchor="middle">Manga Style</text></g><path fill="#f33" stroke="#1a1a1a" stroke-width="4" d="M140 172h120v36H140z"/><path stroke="#1a1a1a" stroke-width="2" d="M144 176h120v36H144z" opacity=".3"/><text y="6" fill="#fff" font-family="Arial Black, sans-serif" font-size="16" font-weight="900" text-anchor="middle" transform="translate(200 190)">READ NOW!</text><g stroke="#1a1a1a" stroke-width="2" opacity=".15"><path d="M60 140H40M60 150H30M60 160H40M340 140h20M340 150h30M340 160h20"/></g><text x="200" y="270" fill="#666" font-family="Arial, sans-serif" font-size="14" text-anchor="middle">Bold ink lines &amp; action panels</text></g></svg>
